<svg xmlns="http://www.w3.org/2000/svg" viewBox="0 0 200 240">
	<path fill="#3B4851" d="M50.9 12v6h2v-4h4v-2h-6zm16.3 0h-4.3v2h4v4h2v-6h-1.7zm-.3 14h-4v2h6v-6h-2v4zm-14-4h-2v6h6v-2h-4v-4zm88-11c-4.4 0-8 3.6-8 8 0 1.9.6 3.6 1.7 4.9l-3.7 3.7 1.3 1.3 3.7-3.7c1.4 1.1 3.1 1.7 4.9 1.7 4.4 0 8-3.6 8-8s-3.5-7.9-7.9-7.9zm0 14.2c-3.4 0-6.2-2.8-6.2-6.2s2.8-6.2 6.2-6.2 6.2 2.8 6.2 6.2-2.8 6.2-6.2 6.2zm1-10.2h-2v3h-3v2h3v3h2v-3h3v-2h-3v-3zm-35.5 41.1c-1.1.3-2.4.4-3.4-1.7-.6-1.3-1.4-1.9-1.9-2.2h-.1c-.3-.2-.5-.2-.5-.2v.1l-.9-.1v11c-.6-.3-1.3-.5-2.1-.5-2 0-3.3 1.4-3.3 2.9s1.4 2.7 3.3 2.7c2 0 3.7-1.2 3.7-2.7v-9c.4.1 1.1 1.6 2.5 1.6 1.1-.2 2.2-.8 2.7-1.9zm-2.5 6h6v1.7h-6v-1.7zm-8-6h-2.2V54H92v2.1h-2.1v1.7H92V60h1.7v-2.2h2.2v-1.7zm1-38.1v-6h-2v4h-4v2h6zm7.6 0h4.4v-2h-4v-4h-2v6h1.6zm.4 6h4v-2h-6v6h2v-4zm-10 4h2v-6h-6v2h4v4zm-82-15h2v14h-2V13zm4 7l11 7V13l-11 7zm83 71v1.5c4.1 0 7.5 3.4 7.5 7.5s-3.4 7.5-7.5 7.5-7.5-3.4-7.5-7.5h-1.5c0 5 4 9 9 9s9-4 9-9-4.1-9-9-9zm0 4.7c1.5 0 2.6.9 2.6 2.3 0 .8-.5 1.5-1.2 1.7.9.2 1.5 1 1.5 2 0 1.6-1.2 2.7-3 2.7s-2.9-1.1-2.9-2.8v-.2h1.3c0 1.2.6 1.8 1.6 1.8.9 0 1.5-.6 1.5-1.5 0-1-.8-1.4-1.7-1.4h-.4v-1h.1c.8 0 1.7-.1 1.7-1.2 0-.7-.5-1.2-1.3-1.2-.9 0-1.4.6-1.4 1.7H97c.2-1.9 1.2-2.9 2.9-2.9zm-36-42h-2.3l1.8-2.2h-1.5l-3 3.1 3 3.1h1.5l-1.9-2.3h2.4c2.5 0 4.5 2.1 4.5 4.7s-2 4.7-4.5 4.7h-1v1.6h1c3.3 0 6-2.8 6-6.3s-2.7-6.4-6-6.4zm-3.1 11.8l-3-3.1h-1.5l1.8 2.2h-2.2c-2.5 0-4.5-2.1-4.5-4.7s2-4.7 4.5-4.7h1v-1.6h-1c-3.3 0-6 2.8-6 6.3s2.7 6.3 6 6.3h2.4l-1.9 2.4h1.5l2.9-3.1z"/>
	<path fill="#FFF" d="M13.9 102.4l5.3-5.4-5.3-5.4.7-.7 5.3 5.5 5.3-5.5.7.7-5.3 5.4 5.3 5.4-.7.7-5.3-5.5-5.3 5.5-.7-.7z"/>
	<path fill="#DBDCE0" d="M175 104.4l4.3-4.4-4.3-4.4.7-.7 4.3 4.5 4.3-4.5.7.7-4.3 4.4 4.3 4.4-.7.7-4.3-4.5-4.3 4.5-.7-.7z"/>
	<path fill="#3B4851" d="M69 93.1h1.8v13.8H69V93.1zm-14 0h15.8v1.8H55v-1.8zm0 12h15.8v1.8H55v-1.8zm-6-9h1.8v7.8H49v-7.8zm3.9 1.8l2.1-3v-1.8l-2.1 3v1.8zm0 4.2l2.1 3v1.8l-2.2-3 .1-1.8zm-2.1 0h2.1v1.8h-2.1v-1.8zm0-6h2.1v1.8h-2.1v-1.8zM66 91.3h1.8v1.8H66v-1.8zm-5 0h1.8v1.8H61v-1.8zm-5 0h1.8v1.8H56v-1.8zm10 15.6h1.8v1.8H66v-1.8zm-5 0h1.8v1.8H61v-1.8zm-5 0h1.8v1.8H56v-1.8zm1-9.8h9.8v1.8H57v-1.8zm0 4h9.8v1.8H57v-1.8zm73.9 34.9v8h5l5.3 5v-18l-5.3 5h-5z"/>
	<path fill="#F90368" d="M148.9 137.8l-1.3-1.4-2.1 2.2-2.2-2.2-1.3 1.4 2.2 2.2-2.2 2.3 1.3 1.3 2.2-2.2 2.1 2.2 1.3-1.3-2.1-2.3 2.1-2.2z"/>
	<path fill="#3B4851" d="M10.9 136v8h5l5.3 5v-18l-5.3 5h-5z"/>
	<path fill="#009AA0" d="M25.5 140c0-1.5-1.2-2.7-2.6-2.7v5.4c1.4 0 2.6-1.2 2.6-2.7"/>
	<path fill="#009AA0" d="M22.9 132.9v1.8c2.4.4 4.3 2.6 4.3 5.3s-1.9 4.9-4.3 5.3v1.8c3.4-.4 6-3.5 6-7.1s-2.6-6.7-6-7.1"/>
	<path fill="#3B4851" d="M50.9 136v8h5l5.3 5v-18l-5.3 5h-5z"/>
	<path fill="#009AA0" d="M65.5 140c0-1.5-1.2-2.7-2.6-2.7v5.4c1.4 0 2.6-1.2 2.6-2.7"/>
	<path fill="#3B4851" d="M90.9 136v8h5l5.3 5v-18l-5.3 5h-5z"/>
	<circle fill="none" stroke="#3B4851" stroke-width="2" stroke-miterlimit="10" cx="20" cy="60" r="14"/>
	<path fill="#3B4851" d="M22 53h4v14h-4zm-8 0h4v14h-4z"/>
	<g fill="#3B4851">
		<path d="M22 169.5v.5h-4v-.2l-.4.9.4.7v.6h.1l.6 1.2.5-1.2h1.6l6.2 15H13l2.2-5.5-1.2-2-3 7.5 1 2h16l1-2.2z"/>
		<path d="M22 185l-7-13h-2l7 13z"/>
	</g>
	
	<path fill="#FFF" d="M139 98h2v1h3v-1h-1v-1h-1v-1h-1v-1h-2v1h-1v1h-1v1h-1v1h3z"/>
	<path fill="#D3D9DD" d="M139 61v-2h1v-3h-1v1h-1v1h-1v1h-1v2h1v1h1v1h1v1h1v-3zm5 0v-2h1v-3h-1v1h-1v1h-1v1h-1v2h1v1h1v1h1v1h1v-3z"/>
	<path fill="#FFF" d="M139 103h2v-1h3v1h-1v1h-1v1h-1v1h-2v-1h-1v-1h-1v-1h-1v-1h3z"/><path fill="#009AA0" d="M144 179.5l-7-5.5v2l5 4-5 4v2l7-5.5zm39.5-5.5l-6 7-3-4h-2l4.5 6h1l7.5-9z"/>
	<path fill="#DBDCE0" d="M108 181.5v-3h-2.2c-.1-.5-.4-1.1-.6-1.5l1.6-1.6-2.1-2.1-1.6 1.6c-.5-.3-1-.5-1.5-.6V172h-3v2.2c-.5.1-1.1.4-1.5.6l-1.6-1.6-2.1 2.1 1.6 1.6c-.3.5-.5 1-.6 1.5H92v3h2.2c.1.5.4 1.1.6 1.5l-1.6 1.6 2.1 2.1 1.6-1.6c.5.3 1 .5 1.5.6v2.2h3v-2.2c.5-.1 1.1-.4 1.5-.6l1.6 1.6 2.1-2.1-1.6-1.6c.3-.5.5-1 .6-1.5h2.4zm-8 1.5c-1.7 0-3-1.3-3-3s1.3-3 3-3 3 1.3 3 3-1.3 3-3 3z"/>
	<path fill="#3B4851" d="M68 181.5v-3h-2.2c-.1-.5-.4-1.1-.6-1.5l1.6-1.6-2.1-2.1-1.6 1.6c-.5-.3-1-.5-1.5-.6V172h-3v2.2c-.5.1-1.1.4-1.5.6l-1.6-1.6-2.1 2.1 1.6 1.6c-.3.5-.5 1-.6 1.5H52v3h2.2c.1.5.4 1.1.6 1.5l-1.6 1.6 2.1 2.1 1.6-1.6c.5.3 1 .5 1.5.6v2.2h3v-2.2c.5-.1 1.1-.4 1.5-.6l1.6 1.6 2.1-2.1-1.6-1.6c.3-.5.5-1 .6-1.5H68zm-8 1.5c-1.7 0-3-1.3-3-3s1.3-3 3-3 3 1.3 3 3-1.3 3-3 3z"/>
	<path fill="#DBDCE0" d="M15 213h10c1.1 0 2 .9 2 2v10c0 1.1-.9 2-2 2H15c-1.1 0-2-.9-2-2v-10c0-1.1.9-2 2-2z"/>
	<path fill="#22C1C5" d="M55 213h10c1.1 0 2 .9 2 2v10c0 1.1-.9 2-2 2H55c-1.1 0-2-.9-2-2v-10c0-1.1.9-2 2-2z"/>
	<path fill="#EDEEF0" d="M55 221l1-1 2 2 6-6 1 1-7 7-3-3z"/>
	<path fill="#DBDCE0" d="M105 218.5c-.8 0-1.5-.7-1.5-1.5s.7-1.5 1.5-1.5 1.5.7 1.5 1.5-.7 1.5-1.5 1.5zm-.5-3.9v-1.1c0-.3.2-.5.5-.5s.5.2.5.5v1.1c-.2 0-.3-.1-.5-.1s-.3 0-.5.1zm-4.5 7.9c-.8 0-1.5-.7-1.5-1.5s.7-1.5 1.5-1.5 1.5.7 1.5 1.5-.7 1.5-1.5 1.5zm-.5-3.9v-5.1c0-.3.2-.5.5-.5s.5.2.5.5v5.1c-.2 0-.3-.1-.5-.1s-.3 0-.5.1zm-4.5 1.9c-.8 0-1.5-.7-1.5-1.5s.7-1.5 1.5-1.5 1.5.7 1.5 1.5-.7 1.5-1.5 1.5zm-.5-3.9v-3.1c0-.3.2-.5.5-.5s.5.2.5.5v3.1c-.2 0-.3-.1-.5-.1s-.3 0-.5.1zm1 4.8v5.1c0 .3-.2.5-.5.5s-.5-.2-.5-.5v-5.1c.2 0 .3.1.5.1s.3 0 .5-.1zm5 2v3.1c0 .3-.2.5-.5.5s-.5-.2-.5-.5v-3.1c.2 0 .3.1.5.1s.3 0 .5-.1zm5-4v7.1c0 .3-.2.5-.5.5s-.5-.2-.5-.5v-7.1c.2 0 .3.1.5.1s.3 0 .5-.1zm40-1.4l-5.5 5.5-5.5-5.5 1.5-1.5 4 4 4-4 1.5 1.5z"/>
	<path fill="#3B4851" d="M190.9 140c0-6-4.9-10.9-10.9-10.9s-10.9 4.9-10.9 10.9 4.9 10.9 10.9 10.9 10.9-4.9 10.9-10.9zm-19.4 0c0-4.7 3.8-8.5 8.5-8.5 4.2 0 7.7 3.1 8.4 7.1h-8.6v2.7h8.6c-.7 4-4.2 7.1-8.4 7.1-4.7.1-8.5-3.7-8.5-8.4z"/>
	<path fill="#F64545" d="M180.9 25.3c-7.4.2-4.6-6-3.5-7.7-.2 1.4.3 2.3 1 2.8 0-1.3.1-3.1 1.7-4.2.2 1.7.2 3.1.7 4 .5-1.2.7-3.6-1.1-6.5 4.6 1.5 8.7 11.4 1.2 11.6z"/>
</svg>
