<?xml version="1.0" standalone="no"?>
<!DOCTYPE svg PUBLIC "-//W3C//DTD SVG 20010904//EN"
 "http://www.w3.org/TR/2001/REC-SVG-20010904/DTD/svg10.dtd">
<svg version="1.0" xmlns="http://www.w3.org/2000/svg"
 width="512.000000pt" height="512.000000pt" viewBox="0 0 512.000000 512.000000"
 preserveAspectRatio="xMidYMid meet">

<g transform="translate(0.000000,512.000000) scale(0.100000,-0.100000)"
fill="#000000" stroke="none">
<path d="M2515 5013 c-152 -19 -254 -65 -276 -126 -11 -32 -16 -35 -74 -45
-171 -28 -291 -150 -324 -326 -42 -225 -12 -656 64 -944 58 -219 163 -394 269
-449 28 -14 28 -17 23 -72 -4 -32 -9 -64 -12 -72 -15 -40 -404 -99 -649 -99
-68 0 -91 -4 -134 -26 -121 -60 -180 -204 -186 -451 l-2 -112 -63 -73 c-175
-205 -256 -395 -282 -667 -11 -115 -8 -240 12 -516 5 -77 13 -222 18 -323 8
-176 9 -184 40 -246 96 -196 384 -330 814 -381 375 -43 826 -23 1219 55 232
47 418 113 659 236 246 126 424 275 492 414 33 66 39 91 52 205 8 72 28 182
44 245 61 242 73 312 78 460 4 119 2 162 -15 241 -47 225 -192 413 -443 575
-37 23 -70 47 -73 53 -4 6 12 49 35 96 40 80 46 127 10 77 -49 -69 -155 -160
-217 -187 -33 -14 -41 -23 -42 -44 0 -15 -1 -31 -2 -36 -7 -32 2 -64 17 -67
27 -5 -104 -65 -182 -83 -86 -20 -205 -20 -270 -1 -27 9 -50 14 -51 13 -2 -1
40 -25 93 -52 124 -63 189 -114 198 -155 4 -16 12 -30 20 -30 7 0 31 20 54 45
l41 45 10 -26 c14 -36 12 -81 -5 -114 -29 -57 -166 -102 -482 -159 -286 -51
-350 -43 -444 56 -79 84 -114 140 -220 353 -175 353 -184 417 -81 579 l34 55
30 -80 c36 -93 31 -86 61 -89 44 -5 160 -72 233 -135 79 -67 249 -186 315
-220 28 -15 23 -9 -56 54 -144 117 -347 355 -455 536 -26 43 -79 108 -127 155
-108 106 -145 181 -151 305 -3 74 0 91 20 130 30 59 89 90 170 90 53 0 58 -2
64 -25 4 -15 13 -25 24 -25 11 0 22 -5 25 -11 4 -6 13 -8 20 -5 7 2 17 0 23
-6 8 -8 16 -8 26 2 38 31 55 78 71 195 13 102 39 216 62 275 4 8 5 18 5 23 -1
4 4 7 11 7 8 0 8 3 -2 9 -33 21 46 133 119 171 20 10 54 21 75 25 22 4 51 14
65 23 35 22 117 19 293 -12 135 -23 184 -25 173 -7 -2 3 34 5 80 3 48 -2 84
-8 84 -14 0 -5 -14 -42 -31 -81 -39 -89 -47 -143 -26 -184 17 -32 70 -63 107
-63 23 0 23 0 -3 24 -68 63 -27 162 80 197 122 39 167 85 161 162 -2 31 1 42
12 42 19 0 46 -73 74 -200 23 -98 23 -99 34 -65 20 60 42 210 42 279 -1 153
-46 267 -141 355 -142 131 -385 210 -729 236 -126 9 -538 12 -605 3z m1356
-3310 c49 -44 121 -143 143 -196 l16 -39 -53 -59 -52 -60 -8 63 c-14 113 -84
223 -176 280 l-36 23 55 11 c30 7 58 12 62 13 5 0 26 -16 49 -36z m-361 -81
c71 -35 88 -127 35 -190 -49 -59 -144 -85 -441 -122 -308 -39 -339 -49 -437
-136 -89 -79 -113 -82 -184 -25 -116 93 -121 112 -58 241 45 91 58 110 80 110
6 0 48 -22 95 -50 68 -40 94 -50 130 -50 57 0 117 28 183 83 109 93 195 129
352 151 115 16 195 12 245 -12z m-751 -83 l-31 -62 -44 44 c-24 23 -42 45 -39
47 4 5 110 29 133 31 8 1 1 -22 -19 -60z m1038 -351 c-3 -7 -36 -58 -74 -114
-66 -98 -69 -101 -90 -87 -32 21 -121 19 -151 -4 -14 -10 -51 -61 -84 -113
-72 -115 -81 -125 -136 -157 -66 -39 -151 -35 -248 11 -83 39 -114 77 -114
138 0 83 75 126 315 183 88 21 237 64 330 96 167 57 264 75 252 47z m-377
-586 c0 -4 -13 -29 -30 -55 -25 -39 -35 -47 -60 -47 -35 0 -124 55 -115 71 4
5 23 9 43 10 20 0 60 7 87 14 63 16 75 17 75 7z"/>
</g>
</svg>
